<svg version="1.1" xmlns="http://www.w3.org/2000/svg" viewBox="0 0 363.1332532662278 363.1332532662278" width="726.2665065324557" height="726.2665065324557">
  <!-- svg-source:excalidraw -->
  
  <defs>
    <style>
      @font-face {
        font-family: "Virgil";
        src: url("https://unpkg.com/@zsviczian/excalidraw@0.11.0-obsidian-18/dist/excalidraw-assets/Virgil.woff2");
      }
      @font-face {
        font-family: "Cascadia";
        src: url("https://unpkg.com/@zsviczian/excalidraw@0.11.0-obsidian-18/dist/excalidraw-assets/Cascadia.woff2");
      }
    </style>
  </defs>
  <rect x="0" y="0" width="363.1332532662278" height="363.1332532662278" fill="#c6c3b4"/><g stroke-linecap="round" transform="translate(49.999999999999986 50) rotate(0 131.5666266331139 131.5666266331139)"><path d="M0 0 L263.13 0 L263.13 263.13 L0 263.13" stroke="none" stroke-width="0" fill="#fff"/><path d="M0 0 C59.86 0, 119.72 0, 263.13 0 M263.13 0 C263.13 66.39, 263.13 132.77, 263.13 263.13 M263.13 263.13 C159.74 263.13, 56.34 263.13, 0 263.13 M0 263.13 C0 158.98, 0 54.82, 0 0" stroke="transparent" stroke-width="1" fill="none" stroke-dasharray="1.5 6.5"/></g><g stroke-linecap="round"><g transform="translate(165.13183845671568 201.93500657751727) rotate(0 16.69819157585784 -17.237139940848238)"><path d="M0 0 C0.99 -4.84, 4.58 -18.05, 5.92 -29.06 C7.26 -40.07, 8.28 -54.77, 8.05 -66.04 C7.82 -77.31, 3.92 -91.68, 4.54 -96.67 C5.16 -101.67, 13.7 -104.27, 11.76 -96.01 C9.83 -87.75, -0.02 -55.66, -7.08 -47.11 C-14.14 -38.56, -34.7 -40.09, -30.61 -44.73 C-26.51 -49.36, 2.62 -62.49, 17.48 -74.9 C32.35 -87.31, 54.56 -113.06, 58.57 -119.17 C62.59 -125.28, 46.51 -133.57, 41.56 -111.56 C36.61 -89.55, 35.01 -19.84, 28.89 12.87 C22.77 45.58, 9.46 79.94, 4.84 84.7 C0.22 89.46, -8.7 61.02, 1.16 41.44 C11.02 21.86, 53.53 -20.41, 64.01 -32.78 M0 0 C0.99 -4.84, 4.58 -18.05, 5.92 -29.06 C7.26 -40.07, 8.28 -54.77, 8.05 -66.04 C7.82 -77.31, 3.92 -91.68, 4.54 -96.67 C5.16 -101.67, 13.7 -104.27, 11.76 -96.01 C9.83 -87.75, -0.02 -55.66, -7.08 -47.11 C-14.14 -38.56, -34.7 -40.09, -30.61 -44.73 C-26.51 -49.36, 2.62 -62.49, 17.48 -74.9 C32.35 -87.31, 54.56 -113.06, 58.57 -119.17 C62.59 -125.28, 46.51 -133.57, 41.56 -111.56 C36.61 -89.55, 35.01 -19.84, 28.89 12.87 C22.77 45.58, 9.46 79.94, 4.84 84.7 C0.22 89.46, -8.7 61.02, 1.16 41.44 C11.02 21.86, 53.53 -20.41, 64.01 -32.78" stroke="#9b9" stroke-width="15" fill="none"/></g></g></svg>