<svg version="1.1" xmlns="http://www.w3.org/2000/svg" viewBox="0 0 556 803" width="556" height="803">
  <!-- svg-source:excalidraw -->
  
  <defs>
    <style>
      @font-face {
        font-family: "Virgil";
        src: url("https://excalidraw.com/Virgil.woff2");
      }
      @font-face {
        font-family: "Cascadia";
        src: url("https://excalidraw.com/Cascadia.woff2");
      }
    </style>
  </defs>
  <g stroke-linecap="round"><g transform="translate(50 354) rotate(0 228 47.5)" fill-rule="evenodd"><path d="M0 0 L95 -190 L323 -304 L456 -114 L380 342 L342 399 L133 323 L0 0" stroke="none" stroke-width="0" fill="#34208c" fill-rule="evenodd"/><path d="M0 0 C27.39 -54.77, 54.77 -109.54, 95 -190 M0 0 C26.71 -53.41, 53.41 -106.83, 95 -190 M95 -190 C184.79 -234.89, 274.58 -279.79, 323 -304 M95 -190 C149.41 -217.2, 203.82 -244.41, 323 -304 M323 -304 C371.54 -234.66, 420.08 -165.31, 456 -114 M323 -304 C349.9 -265.57, 376.8 -227.14, 456 -114 M456 -114 C426.27 64.41, 396.53 242.82, 380 342 M456 -114 C439.95 -17.73, 423.91 78.55, 380 342 M380 342 C366.57 362.14, 353.15 382.28, 342 399 M380 342 C370.83 355.75, 361.67 369.5, 342 399 M342 399 C275.76 374.91, 209.52 350.83, 133 323 M342 399 C297.73 382.9, 253.46 366.8, 133 323 M133 323 C102.89 249.87, 72.78 176.75, 0 0 M133 323 C80.94 196.56, 28.87 70.12, 0 0 M0 0 C0 0, 0 0, 0 0 M0 0 C0 0, 0 0, 0 0" stroke="transparent" stroke-width="0.5" fill="none"/></g></g><g stroke-linecap="round"><g transform="translate(392 753) rotate(0 -57 -304)" fill-rule="evenodd"><path d="M0 0 L-228 -456 L-38 -608 L114 -513 L38 -57 L0 0" stroke="none" stroke-width="0" fill="#8b78de" fill-rule="evenodd"/><path d="M0 0 C-82.81 -165.62, -165.62 -331.23, -228 -456 M0 0 C-74.55 -149.11, -149.11 -298.22, -228 -456 M-228 -456 C-161.84 -508.93, -95.68 -561.85, -38 -608 M-228 -456 C-175.68 -497.85, -123.36 -539.71, -38 -608 M-38 -608 C17.08 -573.57, 72.17 -539.15, 114 -513 M-38 -608 C5.61 -580.74, 49.22 -553.49, 114 -513 M114 -513 C98.58 -420.48, 83.16 -327.96, 38 -57 M114 -513 C97.38 -413.25, 80.75 -313.5, 38 -57 M38 -57 C23.37 -35.05, 8.74 -13.11, 0 0 M38 -57 C29.2 -43.8, 20.4 -30.6, 0 0 M0 0 C0 0, 0 0, 0 0 M0 0 C0 0, 0 0, 0 0" stroke="transparent" stroke-width="0.5" fill="none"/></g></g><g stroke-linecap="round"><g transform="translate(354 145) rotate(0 76 0)" fill-rule="evenodd"><path d="M0 0 L19 -95 L152 95 L0 0" stroke="none" stroke-width="0" fill="#af9ff4" fill-rule="evenodd"/><path d="M0 0 C3.94 -19.69, 7.88 -39.38, 19 -95 M0 0 C6.73 -33.67, 13.47 -67.34, 19 -95 M19 -95 C48.3 -53.14, 77.6 -11.28, 152 95 M19 -95 C58.62 -38.4, 98.23 18.19, 152 95 M152 95 C109.84 68.65, 67.69 42.31, 0 0 M152 95 C95.41 59.63, 38.81 24.26, 0 0 M0 0 C0 0, 0 0, 0 0 M0 0 C0 0, 0 0, 0 0" stroke="transparent" stroke-width="0.5" fill="none"/></g></g><g stroke-linecap="round"><g transform="translate(164 297) rotate(0 104.5 104.5)" fill-rule="evenodd"><path d="M0 0 L-19 -133 L209 -247 L190 -152 L0 0 L19 380 L228 456 L0 0" stroke="none" stroke-width="0" fill="#4a37a0" fill-rule="evenodd"/><path d="M0 0 C-4.35 -30.42, -8.69 -60.85, -19 -133 M0 0 C-5.48 -38.35, -10.96 -76.7, -19 -133 M-19 -133 C53.13 -169.06, 125.25 -205.13, 209 -247 M-19 -133 C35.92 -160.46, 90.83 -187.92, 209 -247 M209 -247 C202.96 -216.78, 196.91 -186.56, 190 -152 M209 -247 C203.3 -218.52, 197.61 -190.05, 190 -152 M190 -152 C128.28 -102.62, 66.56 -53.25, 0 0 M190 -152 C127.62 -102.1, 65.25 -52.2, 0 0 M0 0 C6.57 131.35, 13.14 262.71, 19 380 M0 0 C5.58 111.56, 11.16 223.12, 19 380 M19 380 C84.63 403.86, 150.26 427.73, 228 456 M19 380 C94.25 407.36, 169.5 434.73, 228 456 M228 456 C160.97 321.94, 93.94 187.88, 0 0 M228 456 C140.57 281.14, 53.14 106.28, 0 0 M0 0 C0 0, 0 0, 0 0 M0 0 C0 0, 0 0, 0 0" stroke="transparent" stroke-width="0.5" fill="none"/></g></g></svg>